<?xml version="1.0" encoding="utf-8"?>
<!-- Generator: Adobe Illustrator 28.3.0, SVG Export Plug-In . SVG Version: 6.00 Build 0)  -->
<svg version="1.1" id="Layer_1" xmlns="http://www.w3.org/2000/svg" xmlns:xlink="http://www.w3.org/1999/xlink" x="0px" y="0px"
	 viewBox="0 0 596.1 595.3" style="enable-background:new 0 0 596.1 595.3;" xml:space="preserve">
<style type="text/css">
	.st0{fill:#E5ECE5;}
	.st1{fill:#1F6527;}
	.st2{fill:#F5F8F6;}
</style>
<g>
	<path class="st0" d="M596.1,596c-198.6,0-397.1,0-596,0c0-198.4,0-397,0-596c198.5,0,397.2,0,596,0
		C596.1,198.4,596.1,397.2,596.1,596z M456.5,370.8c6,7.8,13.6,10.2,22.5,10.7c21.8,1.2,35.5-11,45.2-28.3
		c10.7-19,20.2-38.6,30.2-57.9c3.4-6.5,6.4-13.2,9.9-20.5c-2.9-4.5-5.4-8.6-8.9-13.9c-13.8,0.7-27.3,1.4-40.9,2
		c0,0.8,0.1,1.6,0.1,2.4c-4.4-1.9-8.9-3.8-12.7-5.4c-0.7-6.6-1.4-12.7-2-18c-20.9-13.9-39.5-11.4-57.2,2
		c-8.7-10.7-18.4-17.4-31.5-12c-7.7,3.2-15.1,3.4-23,3c-7.9-0.4-15.8-0.1-25.9-0.1c-3.5,8.5-6.9,16.8-11.1,26.9
		c-6.9,0-15.9,1.9-23.6-0.4c-14.8-4.4-27.2-0.5-36.2,5.1c-10.3-2.2-17.7-4.9-25.1-5c-19.3-0.4-38.6,0.6-57.9,0.7
		c-11.3,0-22.7-1.1-34-1.1c-8.2,0-16.4,0.8-24.6,1.5c-3,0.3-6,1.5-9.7,2.4c4.1-17.2-0.7-23.6-16.6-23.8c-17.8-0.2-35.7,0-55.1,0
		c-2.7,4.4-6.8,8.6-7.8,13.4c-5.9,27.6-11.5,55.3-16.3,83.1c-2.3,13.5,3.1,19.2,17.1,19.5c12.9,0.3,25.9,0.6,38.7-0.1
		c9-0.5,17.9-2.7,28.8-4.4c3.8,1.6,10,4.3,16.3,6.9c1.4,18.3,5.1,21.6,23.9,21.7c3.5,0,7,0.2,10.4-0.1c9.7-0.7,14.3-4.6,16.7-14
		c1.3-5,2.3-10.1,3-13.1c9.9,1.4,18,3.1,26.2,3.6c8.2,0.5,16.6,0.3,24.8-0.6c8.5-0.9,16.8-3.1,26.2-4.9c22.9,10.2,47.6,5.4,75.2,1.1
		c6.6,5,17.2,5.1,28.4,4.5c24.9-1.3,49.8-1.8,74.9,0C455.6,362.7,456.1,367,456.5,370.8z"/>
	<path class="st1" d="M456.5,370.8c-0.4-3.8-0.9-8.1-1.4-13.1c-25.1-1.8-50-1.3-74.9,0c-11.1,0.6-21.7,0.4-28.4-4.5
		c-27.7,4.3-52.3,9.2-75.2-1.1c-9.4,1.8-17.8,4-26.2,4.9c-8.2,0.9-16.6,1.1-24.8,0.6c-8.2-0.5-16.3-2.2-26.2-3.6
		c-0.7,3.1-1.7,8.1-3,13.1c-2.4,9.4-7,13.3-16.7,14c-3.5,0.3-7,0.1-10.4,0.1c-18.8-0.1-22.4-3.4-23.9-21.7
		c-6.3-2.7-12.5-5.3-16.3-6.9c-10.9,1.7-19.8,3.9-28.8,4.4c-12.9,0.7-25.8,0.4-38.7,0.1c-14-0.4-19.5-6-17.1-19.5
		c4.8-27.8,10.4-55.5,16.3-83.1c1-4.8,5.2-9,7.8-13.4c19.4,0,37.2-0.1,55.1,0c15.9,0.2,20.7,6.5,16.6,23.8c3.7-1,6.7-2.2,9.7-2.4
		c8.2-0.8,16.4-1.5,24.6-1.5c11.3,0,22.7,1.1,34,1.1c19.3,0,38.6-1,57.9-0.7c7.4,0.1,14.8,2.9,25.1,5c9-5.6,21.4-9.5,36.2-5.1
		c7.7,2.3,16.7,0.4,23.6,0.4c4.1-10.1,7.6-18.4,11.1-26.9c10,0,18-0.3,25.9,0.1c7.9,0.4,15.3,0.2,23-3c13.1-5.4,22.8,1.3,31.5,12
		c17.7-13.4,36.3-15.9,57.2-2c0.6,5.2,1.2,11.4,2,18c3.8,1.6,8.3,3.5,12.7,5.4c0-0.8-0.1-1.6-0.1-2.4c13.6-0.7,27.1-1.3,40.9-2
		c3.4,5.3,6,9.4,8.9,13.9c-3.5,7.2-6.5,13.9-9.9,20.5c-10,19.4-19.5,39-30.2,57.9c-9.7,17.3-23.4,29.5-45.2,28.3
		C470.1,381,462.5,378.6,456.5,370.8z M176.4,277.7c-12.4-7.2-23.9-5.3-35.5,8.9c-8.2,10.1-11.2,21.8-10.7,34.7
		c0.8,20.4,12.2,27.5,30.6,19.1c1.6-0.7,3.1-1.7,6.2-3.5c-2.5,10.4-4.6,19.3-6.8,29c7.8,0,14,0,21.5,0c6-29.8,12-59.6,18.5-91.8
		C191.8,275.3,185.6,276.3,176.4,277.7z M74.8,256.2C69.1,285,63.5,313,57.7,341.9c18.8,0,36.4,0,54.4,0c1.1-5.7,2.1-10.9,3.3-17.3
		c-11,0-21.2,0-33.1,0c1.8-6.9,3.2-12.3,4.7-18c9.2,0,17.1,0,25.9,0c1.2-5.8,2.3-11.2,3.8-18.2c-10.1,0-18.3,0-27.1,0
		c1.4-5.6,2.4-9.8,3.7-15c10.6,0,20.8,0,31.1,0c1.2-6.3,2.3-11.4,3.4-17.2C110,256.2,93.2,256.2,74.8,256.2z M326.3,278.2
		c-11.2-6.8-20.6-6.3-31.5,3.8c-14.1,13-17.3,29.8-14.2,47.8c1.8,10.8,11.9,16.1,22.7,13.1c3.7-1,7.1-3.3,10.7-4.9
		c1.2-0.6,2.5-0.9,3.9-1.3c0.6,1.8,1,3.2,1.7,5.2c5,0,10.3,0,16.6,0c4.3-22,8.6-43.9,13.5-68.4C340.7,275.3,334.9,276.5,326.3,278.2
		z M209.1,340.2c14.5,7.6,23.8,0.2,33.3-4.1c1.1,2.3,1.9,4,2.8,6.2c2.4,0.1,4.8,0.4,7.3,0.3c2.8-0.1,5.7-0.6,8.6-0.9
		c4.3-22.4,8.4-43.9,12.7-66c-7.8,0-14,0-20.7,0c-1,3.9-2,7.2-2.7,10.5c-2,9.7-3.5,19.5-6,29.1c-2,7.6-6.9,11.4-16.9,8.3
		c2.8-16.2,5.4-31.8,8.2-48.1c-7.8,0-13.6,0-21,0C213.2,297.4,199.4,318.1,209.1,340.2z M470.2,364.4c18.5,4.9,28,3.1,36.6-11.4
		c14.9-24.9,27.9-51,41.9-77.1c-8.8,0-15.6,0-22.2,0c-6.3,14.3-12.1,27.7-18.9,43.3c-1.8-15.9-3.3-29.4-4.8-43.1
		c-7.1,0-13.6,0-21.3,0c3.9,23.6,7.7,45.8,11.6,69.4c-7,2.2-12.4,3.8-18.6,5.7C473.3,355.2,471.8,359.8,470.2,364.4z M487,251.7
		c-22.5-11.5-35.5-1.1-43.4,22.4c-2.3,1-5,2.1-8.1,3.4c-1.1,4-2.2,8.2-3.4,12.9c3.1,1,5.7,1.9,8.6,2.9c-3,16.2-6,32.3-9.1,48.6
		c8.4,0,14.7,0,20.8,0c3.5-17,6.9-33.3,10.2-49.2c4.3-0.7,7.6-1.2,11-1.7c1.1-5.2,2.1-10,3.1-14.5c-3.8-1.5-6.8-2.7-9.2-3.6
		c0-12.1,9.6-6.4,14.8-9.4C483.7,259.7,485.4,255.7,487,251.7z M370.6,249c-5.1,25.2-10,49.4-14.9,73.6c-1.5,7.2-1,13.8,6.2,19.7
		c6,0,12.9,0,21.8,0c-12.2-33.3,7.1-62.1,6.6-93.3C383.6,249,377.8,249,370.6,249z M411.8,342.1c4.3-22,8.5-43.8,12.8-66.2
		c-8.6,0-14.8,0-21.2,0c-4.5,22.5-8.7,44-13.2,66.2C397.9,342.1,404.2,342.1,411.8,342.1z M428.7,249.2c-13.2-7.7-16.5-6.6-22.7,7.7
		c6.6,11,9.1,11.5,22.7,4C428.7,257.3,428.7,253.1,428.7,249.2z M477.3,332.9c-1.4-5.5-2.8-11.1-4.9-19.5
		c-1.7,9.1-2.7,14.9-3.8,20.7c-0.1,0.3,0.6,0.7,0.9,1.1c0.9,0,1.9,0.3,2.7,0.1C473.7,334.8,474.9,334,477.3,332.9z"/>
	<path class="st2" d="M176.4,277.7c9.2-1.4,15.4-2.4,23.8-3.7c-6.5,32.3-12.5,62-18.5,91.8c-7.5,0-13.8,0-21.5,0
		c2.3-9.7,4.4-18.5,6.8-29c-3.1,1.7-4.6,2.7-6.2,3.5c-18.4,8.4-29.7,1.3-30.6-19.1c-0.5-12.8,2.4-24.6,10.7-34.7
		C152.5,272.4,164,270.5,176.4,277.7z M157,327.2c13.9-6.4,18.1-17.1,14.5-34.4c-7.5-3.4-12.5,0.4-15.2,6.7
		C152.3,308.3,147.9,317.6,157,327.2z"/>
	<path class="st2" d="M74.8,256.2c18.4,0,35.1,0,53.1,0c-1.2,5.8-2.2,11-3.4,17.2c-10.3,0-20.5,0-31.1,0c-1.3,5.2-2.4,9.4-3.7,15
		c8.8,0,17,0,27.1,0c-1.5,7-2.6,12.4-3.8,18.2c-8.9,0-16.8,0-25.9,0c-1.5,5.6-2.9,11-4.7,18c11.9,0,22.1,0,33.1,0
		c-1.2,6.5-2.2,11.6-3.3,17.3c-17.9,0-35.6,0-54.4,0C63.5,313,69.1,285,74.8,256.2z"/>
	<path class="st2" d="M326.3,278.2c8.6-1.8,14.4-2.9,23.3-4.8c-4.8,24.5-9.1,46.4-13.5,68.4c-6.3,0-11.6,0-16.6,0
		c-0.7-2.1-1.1-3.5-1.7-5.2c-1.4,0.5-2.7,0.8-3.9,1.3c-3.6,1.6-7,3.9-10.7,4.9c-10.8,3-20.9-2.4-22.7-13.1
		c-3.1-18,0.1-34.7,14.2-47.8C305.7,271.9,315,271.4,326.3,278.2z M306.9,327.3c17.9-5.8,13.4-20.8,16.7-32.4
		c-7-5.4-11.9-3.6-16.2,1.6C300.7,304.7,300.2,316.8,306.9,327.3z"/>
	<path class="st2" d="M209.1,340.2c-9.7-22.1,4.2-42.8,5.6-64.9c7.4,0,13.2,0,21,0c-2.8,16.3-5.5,31.9-8.2,48.1
		c10,3.1,14.9-0.7,16.9-8.3c2.5-9.6,4-19.4,6-29.1c0.7-3.3,1.7-6.6,2.7-10.5c6.7,0,12.9,0,20.7,0c-4.2,22-8.4,43.6-12.7,66
		c-3,0.3-5.8,0.8-8.6,0.9c-2.4,0.1-4.9-0.2-7.3-0.3c-1-2.1-1.8-3.8-2.8-6.2C232.8,340.4,223.6,347.8,209.1,340.2z"/>
	<path class="st2" d="M470.2,364.4c1.5-4.6,3.1-9.2,4.4-13.2c6.1-1.9,11.6-3.6,18.6-5.7c-4-23.6-7.7-45.9-11.6-69.4
		c7.7,0,14.2,0,21.3,0c1.5,13.8,3,27.2,4.8,43.1c6.8-15.5,12.7-29,18.9-43.3c6.6,0,13.4,0,22.2,0c-14.1,26.1-27,52.1-41.9,77.1
		C498.2,367.5,488.7,369.3,470.2,364.4z"/>
	<path class="st2" d="M487,251.7c-1.6,4-3.3,8-4.8,11.8c-5.1,3-14.7-2.8-14.8,9.4c2.4,1,5.4,2.1,9.2,3.6c-1,4.6-2,9.3-3.1,14.5
		c-3.3,0.5-6.6,1-11,1.7c-3.3,15.9-6.7,32.2-10.2,49.2c-6.2,0-12.4,0-20.8,0c3.1-16.3,6.1-32.4,9.1-48.6c-2.9-0.9-5.5-1.8-8.6-2.9
		c1.2-4.6,2.3-8.9,3.4-12.9c3.2-1.3,5.8-2.4,8.1-3.4C451.5,250.5,464.5,240.2,487,251.7z"/>
	<path class="st2" d="M370.6,249c7.2,0,13.1,0,19.7,0c0.4,31.2-18.8,60.1-6.6,93.3c-8.9,0-15.8,0-21.8,0c-7.1-5.9-7.6-12.5-6.2-19.7
		C360.6,298.4,365.5,274.2,370.6,249z"/>
	<path class="st2" d="M411.8,342.1c-7.7,0-14,0-21.5,0c4.4-22.2,8.7-43.7,13.2-66.2c6.4,0,12.6,0,21.2,0
		C420.3,298.2,416.1,320.1,411.8,342.1z"/>
	<path class="st2" d="M428.7,249.2c0,3.9,0,8.1,0,11.7c-13.6,7.5-16.1,6.9-22.7-4C412.2,242.7,415.5,241.5,428.7,249.2z"/>
	<path class="st0" d="M477.3,332.9c-2.4,1.1-3.6,1.9-5,2.4c-0.8,0.3-1.8,0-2.7-0.1c-0.3-0.4-1-0.8-0.9-1.1c1-5.8,2.1-11.6,3.8-20.7
		C474.5,321.8,475.9,327.4,477.3,332.9z"/>
	<path class="st1" d="M157,327.2c-9-9.6-4.6-18.9-0.8-27.7c2.8-6.3,7.7-10.1,15.2-6.7C175,310.2,170.8,320.8,157,327.2z"/>
	<path class="st1" d="M306.9,327.3c-6.6-10.6-6.2-22.6,0.5-30.8c4.3-5.2,9.2-7,16.2-1.6C320.2,306.5,324.8,321.6,306.9,327.3z"/>
</g>
</svg>
